<?xml version="1.0" standalone="no"?><!DOCTYPE svg PUBLIC "-//W3C//DTD SVG 1.1//EN" "http://www.w3.org/Graphics/SVG/1.1/DTD/svg11.dtd"><svg t="1696648753665" class="icon" viewBox="0 0 1024 1024" version="1.1" xmlns="http://www.w3.org/2000/svg" p-id="2251" xmlns:xlink="http://www.w3.org/1999/xlink" width="16" height="16"><path d="M979.989543 469.308394H757.450516c4.519899-21.887511 7.247838-45.094992 7.247838-69.798441 0-137.428929-116.773391-270.417958-121.72528-276.001833a21.415521 21.415521 0 0 0-21.887511-6.319858 21.287524 21.287524 0 0 0-15.103663 16.98362l-12.583719 75.438315C571.854663 148.115571 533.535519 69.229333 467.241 5.910748A21.46352 21.46352 0 0 0 441.585573 2.982813a21.295524 21.295524 0 0 0-9.727782 23.935466c15.703649 58.366696-2.815937 152.996581-22.911488 226.978928-5.591875-35.7912-15.615651-66.214521-32.935264-76.414293a21.351523 21.351523 0 0 0-32.167282 18.399589c0 31.359299-15.999643 60.278653-34.519228 93.813904-24.703448 44.759-52.734822 95.525866-52.734822 167.972247 0 4.055909 0.599987 7.727827 0.767983 11.64774H41.346516A21.343523 21.343523 0 0 0 20.010993 490.651917v511.98856a21.343523 21.343523 0 0 0 21.335523 21.335524H979.989543a21.343523 21.343523 0 0 0 21.335524-21.335524v-511.98856A21.343523 21.343523 0 0 0 979.989543 469.308394z m-149.332663 42.663047v127.99714H660.380685c33.879243-29.183348 65.878528-72.702376 85.334093-127.99714h84.942102zM346.699693 310.255948c7.559831-13.599696 14.895667-26.919399 21.167527-40.399098 3.495922 28.543362 5.503877 64.510559 5.071887 100.26176a21.311524 21.311524 0 0 0 17.367612 21.199526 21.255525 21.255525 0 0 0 23.935465-13.351701c3.071931-8.191817 63.918572-169.980202 65.958527-293.241448 78.462247 104.493665 96.429845 228.906885 96.63784 230.354853a21.279525 21.279525 0 0 0 20.823535 18.431588c9.85578-0.255994 19.631561-7.383835 21.335523-17.791602L640.077138 189.29865c32.895265 46.422963 81.958169 129.277111 81.958169 210.219303 0 157.772475-113.837456 240.458627-153.212577 240.458628H455.241268c-19.023575-5.247883-155.940516-47.742933-155.940516-182.347926 0-61.486626 24.111461-105.133651 47.398941-147.372707zM659.996693 682.647627v127.99714H361.339366v-127.99714H659.996693zM190.67118 511.971441h72.750374c15.311658 60.974638 54.910773 101.717727 93.693907 127.99714H190.67118v-127.99714z m-127.99714 0H148.008133v127.99714H62.67404v-127.99714z m0 170.668186h255.99428v127.99714h-255.99428v-127.99714zM148.008133 981.296954H62.67404v-127.99714H148.008133v127.99714z m341.328373 0H190.67118v-127.99714h298.665326v127.99714z m341.320374 0H531.999553v-127.99714h298.657327v127.99714z m127.99714 0h-85.326093v-127.99714h85.326093v127.99714z m0-170.660187h-255.99428v-127.99714h255.99428v127.99714z m0-170.668186h-85.326093v-127.99714h85.326093v127.99714z" fill="#333333" p-id="2252"></path></svg>