<?xml version="1.0" standalone="no"?><!DOCTYPE svg PUBLIC "-//W3C//DTD SVG 1.1//EN" "http://www.w3.org/Graphics/SVG/1.1/DTD/svg11.dtd"><svg t="1696648718569" class="icon" viewBox="0 0 1024 1024" version="1.1" xmlns="http://www.w3.org/2000/svg" p-id="1660" xmlns:xlink="http://www.w3.org/1999/xlink" width="16" height="16"><path d="M512 0c-282.304 0-512 229.696-512 512 0 282.368 229.696 512 512 512s512-229.696 512-512c0-282.304-229.632-512-512-512zM218.752 220.032c6.848-6.848 16-10.688 25.728-10.688s18.88 3.776 25.792 10.688l90.112 90.176 1.728-1.728c8.896-9.024 22.848-12.8 35.264-9.408 12.48 3.264 22.336 13.184 25.664 25.792l20.096 75.008c3.392 12.608-0.256 26.112-9.408 35.264-9.024 9.024-22.848 12.8-35.264 9.408l-68.032-18.24c-9.536-0.64-17.728-4.288-24-10.56-14.272-14.272-14.272-37.376 0-51.648l2.432-2.368-90.112-90.048c-14.272-14.208-14.272-37.44 0-51.648zM436.16 642.944l-90.048 90.112 1.6 1.6c9.152 9.152 12.8 22.592 9.472 35.136-3.52 12.736-13.376 22.656-25.856 25.856l-75.136 20.096c-3.008 0.896-6.208 1.28-9.408 1.28-9.664 0-18.816-3.84-25.728-10.752-9.216-9.024-12.864-22.528-9.408-35.2l18.176-67.776c0.384-9.152 4.16-17.856 10.688-24.384 13.824-13.76 37.888-13.696 51.648 0.064l2.304 2.368 90.176-89.984c13.76-13.824 37.824-13.76 51.584 0 14.208 14.208 14.208 37.376-0.064 51.584zM805.312 807.104c-13.568 13.696-37.568 13.952-51.584-0.128l-89.984-89.92-1.664 1.664c-15.232 15.104-38.528 14.592-52.288 0.768-6.528-6.592-10.24-15.296-10.688-24.32l-18.24-67.904c-3.392-12.544 0.256-26.048 9.472-35.264 6.848-6.848 16-10.688 25.728-10.688 3.264 0 6.528 0.448 9.6 1.344l74.944 20.096c12.608 3.328 22.528 13.184 25.792 25.728 3.456 12.352-0.192 25.856-9.344 35.2l-1.728 1.664 90.048 90.048c6.912 6.848 10.752 16.064 10.752 25.856-0.064 9.856-3.904 19.008-10.816 25.856zM817.536 255.36l-20.032 75.008c-3.456 12.672-13.312 22.528-25.792 25.792-12.096 3.2-26.176-0.384-35.264-9.472l-1.6-1.664-90.112 90.112c-6.976 6.848-16.128 10.624-25.856 10.624-9.664 0-18.816-3.776-25.728-10.624-14.208-14.272-14.208-37.376-0.128-51.584l90.176-90.112-1.664-1.664c-7.68-7.616-11.456-16.768-11.456-26.496 0-9.792 3.84-18.944 10.816-25.856 6.656-6.72 16.128-10.688 25.792-10.688l66.24-18.176c12.352-3.328 26.112 0.32 35.264 9.472 9.216 9.152 12.8 22.72 9.344 35.328z" fill="#333333" p-id="1661"></path></svg>